# Blender 4.0.1
# www.blender.org
mtllib metal_ring.mtl
o metal_ring
v 0.000100 0.000266 -0.264100
v 0.036900 0.150666 -0.261500
v 0.036900 0.000266 -0.261500
v 0.000100 0.150666 -0.264100
v 0.000100 0.150666 -0.255900
v 0.035700 0.000266 -0.253400
v 0.035700 0.150666 -0.253400
v 0.000100 0.000266 -0.255900
v 0.072900 0.150666 -0.253800
v 0.072900 0.000266 -0.253800
v 0.070700 0.000266 -0.246000
v 0.070700 0.150666 -0.246000
v 0.107600 0.150666 -0.241200
v 0.107600 0.000266 -0.241200
v 0.104300 0.000266 -0.233800
v 0.104300 0.150666 -0.233800
v 0.140100 0.150666 -0.223900
v 0.140100 0.000266 -0.223900
v 0.135800 0.000266 -0.217000
v 0.135800 0.150666 -0.217000
v 0.170000 0.150666 -0.202200
v 0.170000 0.000266 -0.202200
v 0.164700 0.000266 -0.196000
v 0.164700 0.150666 -0.196000
v 0.196500 0.150666 -0.176600
v 0.196500 0.000266 -0.176600
v 0.190400 0.000266 -0.171200
v 0.190400 0.150666 -0.171200
v 0.219200 0.150666 -0.147600
v 0.219200 0.000266 -0.147600
v 0.212400 0.000266 -0.143000
v 0.212400 0.150666 -0.143000
v 0.237600 0.150666 -0.115600
v 0.237600 0.000266 -0.115600
v 0.230300 0.000266 -0.112100
v 0.230300 0.150666 -0.112100
v 0.251400 0.150666 -0.081500
v 0.251400 0.000266 -0.081500
v 0.243700 0.000266 -0.078900
v 0.243700 0.150666 -0.078900
v 0.260300 0.150666 -0.045700
v 0.260300 0.000266 -0.045700
v 0.252300 0.000266 -0.044300
v 0.252300 0.150666 -0.044300
v 0.264200 0.150666 -0.009000
v 0.264200 0.000266 -0.009000
v 0.256100 0.000266 -0.008700
v 0.256100 0.150666 -0.008700
v 0.262900 0.150666 0.027800
v 0.262900 0.000266 0.027800
v 0.254800 0.000266 0.027000
v 0.254800 0.150666 0.027000
v 0.256500 0.150666 0.064100
v 0.256500 0.000266 0.064100
v 0.248600 0.000266 0.062200
v 0.248600 0.150666 0.062200
v 0.245100 0.150666 0.099200
v 0.245100 0.000266 0.099200
v 0.237600 0.000266 0.096200
v 0.237600 0.150666 0.096200
v 0.229000 0.150666 0.132300
v 0.229000 0.000266 0.132300
v 0.221900 0.000266 0.128300
v 0.221900 0.150666 0.128300
v 0.208300 0.150666 0.162900
v 0.208300 0.000266 0.162900
v 0.201900 0.000266 0.157900
v 0.201900 0.150666 0.157900
v 0.183700 0.150666 0.190300
v 0.183700 0.000266 0.190300
v 0.178000 0.000266 0.184500
v 0.178000 0.150666 0.184500
v 0.155400 0.150666 0.214000
v 0.155400 0.000266 0.214000
v 0.150600 0.000266 0.207400
v 0.150600 0.150666 0.207400
v 0.124200 0.150666 0.233500
v 0.124200 0.000266 0.233500
v 0.120300 0.000266 0.226400
v 0.120300 0.150666 0.226400
v 0.090500 0.150666 0.248500
v 0.090500 0.000266 0.248500
v 0.087700 0.000266 0.240900
v 0.087700 0.150666 0.240900
v 0.055000 0.150666 0.258700
v 0.055000 0.000266 0.258700
v 0.053300 0.000266 0.250700
v 0.053300 0.150666 0.250700
v 0.018500 0.150666 0.263800
v 0.018500 0.000266 0.263800
v 0.018000 0.000266 0.255700
v 0.018000 0.150666 0.255700
v -0.018300 0.150666 0.263800
v -0.018300 0.000266 0.263800
v -0.017800 0.000266 0.255700
v -0.017800 0.150666 0.255700
v -0.054900 0.150666 0.258700
v -0.054900 0.000266 0.258700
v -0.053200 0.000266 0.250700
v -0.053200 0.150666 0.250700
v -0.090300 0.150666 0.248500
v -0.090300 0.000266 0.248500
v -0.087500 0.000266 0.240900
v -0.087500 0.150666 0.240900
v -0.124000 0.150666 0.233500
v -0.124000 0.000266 0.233500
v -0.120200 0.000266 0.226400
v -0.120200 0.150666 0.226400
v -0.155300 0.150666 0.214000
v -0.155300 0.000266 0.214000
v -0.150500 0.000266 0.207400
v -0.150500 0.150666 0.207400
v -0.183500 0.150666 0.190300
v -0.183500 0.000266 0.190300
v -0.177800 0.000266 0.184500
v -0.177800 0.150666 0.184500
v -0.208200 0.150666 0.162900
v -0.208200 0.000266 0.162900
v -0.201800 0.000266 0.157900
v -0.201800 0.150666 0.157900
v -0.228800 0.150666 0.132300
v -0.228800 0.000266 0.132300
v -0.221700 0.000266 0.128300
v -0.221700 0.150666 0.128300
v -0.244900 0.150666 0.099200
v -0.244900 0.000266 0.099200
v -0.237400 0.000266 0.096200
v -0.237400 0.150666 0.096200
v -0.256300 0.150666 0.064100
v -0.256300 0.000266 0.064100
v -0.248400 0.000266 0.062200
v -0.248400 0.150666 0.062200
v -0.262700 0.150666 0.027800
v -0.262700 0.000266 0.027800
v -0.254700 0.000266 0.027000
v -0.254700 0.150666 0.027000
v -0.264000 0.150666 -0.009000
v -0.264000 0.000266 -0.009000
v -0.255900 0.000266 -0.008700
v -0.255900 0.150666 -0.008700
v -0.260200 0.150666 -0.045700
v -0.260200 0.000266 -0.045700
v -0.252200 0.000266 -0.044300
v -0.252200 0.150666 -0.044300
v -0.251300 0.150666 -0.081500
v -0.251300 0.000266 -0.081500
v -0.243500 0.000266 -0.078900
v -0.243500 0.150666 -0.078900
v -0.237400 0.150666 -0.115600
v -0.237400 0.000266 -0.115600
v -0.230100 0.000266 -0.112100
v -0.230100 0.150666 -0.112100
v -0.219000 0.150666 -0.147600
v -0.219000 0.000266 -0.147600
v -0.212300 0.000266 -0.143000
v -0.212300 0.150666 -0.143000
v -0.196300 0.150666 -0.176600
v -0.196300 0.000266 -0.176600
v -0.190300 0.000266 -0.171200
v -0.190300 0.150666 -0.171200
v -0.169800 0.150666 -0.202200
v -0.169800 0.000266 -0.202200
v -0.164600 0.000266 -0.196000
v -0.164600 0.150666 -0.196000
v -0.140000 0.150666 -0.223900
v -0.140000 0.000266 -0.223900
v -0.135600 0.000266 -0.217000
v -0.135600 0.150666 -0.217000
v -0.107400 0.150666 -0.241200
v -0.107400 0.000266 -0.241200
v -0.104100 0.000266 -0.233800
v -0.104100 0.150666 -0.233800
v -0.072800 0.150666 -0.253800
v -0.072800 0.000266 -0.253800
v -0.070500 0.000266 -0.246000
v -0.070500 0.150666 -0.246000
v -0.036700 0.150666 -0.261500
v -0.036700 0.000266 -0.261500
v -0.035600 0.000266 -0.253400
v -0.035600 0.150666 -0.253400
v 0.000100 0.150666 -0.264100
v 0.035700 0.150666 -0.253400
v 0.036900 0.150666 -0.261500
v 0.000100 0.150666 -0.255900
v 0.070700 0.150666 -0.246000
v 0.072900 0.150666 -0.253800
v 0.104300 0.150666 -0.233800
v 0.107600 0.150666 -0.241200
v 0.135800 0.150666 -0.217000
v 0.140100 0.150666 -0.223900
v 0.164700 0.150666 -0.196000
v 0.170000 0.150666 -0.202200
v 0.190400 0.150666 -0.171200
v 0.196500 0.150666 -0.176600
v 0.212400 0.150666 -0.143000
v 0.219200 0.150666 -0.147600
v 0.230300 0.150666 -0.112100
v 0.237600 0.150666 -0.115600
v 0.243700 0.150666 -0.078900
v 0.251400 0.150666 -0.081500
v 0.252300 0.150666 -0.044300
v 0.260300 0.150666 -0.045700
v 0.256100 0.150666 -0.008700
v 0.264200 0.150666 -0.009000
v 0.254800 0.150666 0.027000
v 0.262900 0.150666 0.027800
v 0.248600 0.150666 0.062200
v 0.256500 0.150666 0.064100
v 0.237600 0.150666 0.096200
v 0.245100 0.150666 0.099200
v 0.221900 0.150666 0.128300
v 0.229000 0.150666 0.132300
v 0.201900 0.150666 0.157900
v 0.208300 0.150666 0.162900
v 0.178000 0.150666 0.184500
v 0.183700 0.150666 0.190300
v 0.150600 0.150666 0.207400
v 0.155400 0.150666 0.214000
v 0.120300 0.150666 0.226400
v 0.124200 0.150666 0.233500
v 0.087700 0.150666 0.240900
v 0.090500 0.150666 0.248500
v 0.053300 0.150666 0.250700
v 0.055000 0.150666 0.258700
v 0.018000 0.150666 0.255700
v 0.018500 0.150666 0.263800
v -0.017800 0.150666 0.255700
v -0.018300 0.150666 0.263800
v -0.053200 0.150666 0.250700
v -0.054900 0.150666 0.258700
v -0.087500 0.150666 0.240900
v -0.090300 0.150666 0.248500
v -0.120200 0.150666 0.226400
v -0.124000 0.150666 0.233500
v -0.150500 0.150666 0.207400
v -0.155300 0.150666 0.214000
v -0.177800 0.150666 0.184500
v -0.183500 0.150666 0.190300
v -0.201800 0.150666 0.157900
v -0.208200 0.150666 0.162900
v -0.221700 0.150666 0.128300
v -0.228800 0.150666 0.132300
v -0.237400 0.150666 0.096200
v -0.244900 0.150666 0.099200
v -0.248400 0.150666 0.062200
v -0.256300 0.150666 0.064100
v -0.254700 0.150666 0.027000
v -0.262700 0.150666 0.027800
v -0.255900 0.150666 -0.008700
v -0.264000 0.150666 -0.009000
v -0.252200 0.150666 -0.044300
v -0.260200 0.150666 -0.045700
v -0.243500 0.150666 -0.078900
v -0.251300 0.150666 -0.081500
v -0.230100 0.150666 -0.112100
v -0.237400 0.150666 -0.115600
v -0.212300 0.150666 -0.143000
v -0.219000 0.150666 -0.147600
v -0.190300 0.150666 -0.171200
v -0.196300 0.150666 -0.176600
v -0.164600 0.150666 -0.196000
v -0.169800 0.150666 -0.202200
v -0.135600 0.150666 -0.217000
v -0.140000 0.150666 -0.223900
v -0.104100 0.150666 -0.233800
v -0.107400 0.150666 -0.241200
v -0.070500 0.150666 -0.246000
v -0.072800 0.150666 -0.253800
v -0.035600 0.150666 -0.253400
v -0.036700 0.150666 -0.261500
v 0.000100 0.000566 -0.256000
v 0.036900 0.000566 -0.261500
v 0.035700 0.000566 -0.253500
v 0.000100 0.000566 -0.264100
v 0.072900 0.000566 -0.253900
v 0.070700 0.000566 -0.246000
v 0.107600 0.000566 -0.241300
v 0.104300 0.000566 -0.233800
v 0.140100 0.000566 -0.223900
v 0.135800 0.000566 -0.217000
v 0.170000 0.000566 -0.202300
v 0.164700 0.000566 -0.196000
v 0.196500 0.000566 -0.176700
v 0.190400 0.000566 -0.171200
v 0.219200 0.000566 -0.147600
v 0.212400 0.000566 -0.143100
v 0.237600 0.000566 -0.115700
v 0.230300 0.000566 -0.112100
v 0.251400 0.000566 -0.081500
v 0.243700 0.000566 -0.079000
v 0.260300 0.000566 -0.045700
v 0.252300 0.000566 -0.044300
v 0.264200 0.000566 -0.009100
v 0.256100 0.000566 -0.008800
v 0.262900 0.000566 0.027800
v 0.254800 0.000566 0.026900
v 0.256500 0.000566 0.064100
v 0.248600 0.000566 0.062100
v 0.245100 0.000566 0.099200
v 0.237600 0.000566 0.096100
v 0.229000 0.000566 0.132300
v 0.221900 0.000566 0.128200
v 0.208300 0.000566 0.162900
v 0.201900 0.000566 0.157900
v 0.183700 0.000566 0.190300
v 0.178000 0.000566 0.184400
v 0.155400 0.000566 0.214000
v 0.150600 0.000566 0.207400
v 0.124200 0.000566 0.233500
v 0.120300 0.000566 0.226300
v 0.090500 0.000566 0.248500
v 0.087700 0.000566 0.240900
v 0.055000 0.000566 0.258700
v 0.053300 0.000566 0.250700
v 0.018500 0.000566 0.263800
v 0.018000 0.000566 0.255700
v -0.018300 0.000566 0.263800
v -0.017800 0.000566 0.255700
v -0.054900 0.000566 0.258700
v -0.053200 0.000566 0.250700
v -0.090300 0.000566 0.248500
v -0.087500 0.000566 0.240900
v -0.124000 0.000566 0.233500
v -0.120200 0.000566 0.226300
v -0.155300 0.000566 0.214000
v -0.150500 0.000566 0.207400
v -0.183500 0.000566 0.190300
v -0.177800 0.000566 0.184400
v -0.208200 0.000566 0.162900
v -0.201800 0.000566 0.157900
v -0.228800 0.000566 0.132300
v -0.221700 0.000566 0.128200
v -0.244900 0.000566 0.099200
v -0.237400 0.000566 0.096100
v -0.256300 0.000566 0.064100
v -0.248400 0.000566 0.062100
v -0.262700 0.000566 0.027800
v -0.254700 0.000566 0.026900
v -0.264000 0.000566 -0.009100
v -0.255900 0.000566 -0.008800
v -0.260200 0.000566 -0.045700
v -0.252200 0.000566 -0.044300
v -0.251300 0.000566 -0.081500
v -0.243500 0.000566 -0.079000
v -0.237400 0.000566 -0.115700
v -0.230100 0.000566 -0.112100
v -0.219000 0.000566 -0.147600
v -0.212300 0.000566 -0.143100
v -0.196300 0.000566 -0.176700
v -0.190300 0.000566 -0.171200
v -0.169800 0.000566 -0.202300
v -0.164600 0.000566 -0.196000
v -0.140000 0.000566 -0.223900
v -0.135600 0.000566 -0.217000
v -0.107400 0.000566 -0.241300
v -0.104100 0.000566 -0.233800
v -0.072800 0.000566 -0.253900
v -0.070500 0.000566 -0.246000
v -0.036700 0.000566 -0.261500
v -0.035600 0.000566 -0.253500
vn -0.0000 -0.0000 -1.0000
vn 0.1402 -0.0000 -0.9901
vn -0.0001 -0.0000 1.0000
vn -0.1388 -0.0000 0.9903
vn 0.2759 -0.0000 -0.9612
vn -0.2747 -0.0000 0.9615
vn 0.4066 -0.0000 -0.9136
vn -0.4070 -0.0000 0.9134
vn 0.5299 -0.0000 -0.8481
vn -0.5305 -0.0000 0.8477
vn 0.6427 -0.0000 -0.7662
vn -0.6427 -0.0000 0.7661
vn 0.7429 -0.0000 -0.6694
vn -0.7433 -0.0000 0.6690
vn 0.8293 -0.0000 -0.5588
vn -0.8288 -0.0000 0.5595
vn 0.8991 -0.0000 -0.4378
vn -0.8986 -0.0000 0.4389
vn 0.9511 -0.0000 -0.3090
vn -0.9512 -0.0000 0.3085
vn 0.9848 -0.0000 -0.1739
vn -0.9847 -0.0000 0.1741
vn 0.9994 -0.0000 -0.0353
vn -0.9994 -0.0000 0.0350
vn 0.9945 -0.0000 0.1047
vn -0.9945 -0.0000 -0.1052
vn 0.9703 -0.0000 0.2419
vn -0.9705 -0.0000 -0.2412
vn 0.9274 -0.0000 0.3741
vn -0.9272 -0.0000 -0.3745
vn 0.8660 -0.0000 0.5001
vn -0.8655 -0.0000 -0.5008
vn 0.7880 -0.0000 0.6156
vn -0.7881 -0.0000 -0.6156
vn 0.6948 -0.0000 0.7192
vn -0.6943 -0.0000 -0.7197
vn 0.5874 -0.0000 0.8093
vn -0.5876 -0.0000 -0.8091
vn 0.4695 -0.0000 0.8829
vn -0.4700 -0.0000 -0.8827
vn 0.3422 -0.0000 0.9396
vn -0.3410 -0.0000 -0.9401
vn -0.3410 -0.0000 -0.9400
vn 0.2078 -0.0000 0.9782
vn -0.2076 -0.0000 -0.9782
vn 0.0694 -0.0000 0.9976
vn -0.0703 -0.0000 -0.9975
vn -0.0692 -0.0000 0.9976
vn 0.0701 -0.0000 -0.9975
vn -0.2080 -0.0000 0.9781
vn 0.2078 -0.0000 -0.9782
vn -0.3426 -0.0000 0.9395
vn 0.3409 -0.0000 -0.9401
vn -0.4688 -0.0000 0.8833
vn 0.4695 -0.0000 -0.8829
vn -0.5876 -0.0000 0.8092
vn 0.5884 -0.0000 -0.8086
vn -0.6947 -0.0000 0.7193
vn 0.6942 -0.0000 -0.7198
vn -0.7881 -0.0000 0.6155
vn 0.7882 -0.0000 -0.6155
vn -0.8665 -0.0000 0.4991
vn 0.8661 -0.0000 -0.4998
vn -0.9274 -0.0000 0.3741
vn 0.9272 -0.0000 -0.3745
vn -0.9703 -0.0000 0.2419
vn 0.9701 -0.0000 -0.2426
vn -0.9945 -0.0000 0.1047
vn 0.9945 -0.0000 -0.1052
vn -0.9994 -0.0000 -0.0339
vn 0.9994 -0.0000 0.0350
vn -0.9850 -0.0000 -0.1726
vn 0.9847 -0.0000 0.1741
vn -0.9507 -0.0000 -0.3102
vn 0.9508 -0.0000 0.3098
vn -0.8985 -0.0000 -0.4390
vn 0.8991 -0.0000 0.4378
vn -0.8293 -0.0000 -0.5588
vn 0.8295 -0.0000 0.5585
vn -0.7429 -0.0000 -0.6694
vn 0.7433 -0.0000 0.6690
vn -0.6433 -0.0000 -0.7656
vn 0.6420 -0.0000 0.7667
vn -0.5300 -0.0000 -0.8480
vn 0.5298 -0.0000 0.8481
vn -0.4064 -0.0000 -0.9137
vn 0.4070 -0.0000 0.9134
vn -0.2761 -0.0000 -0.9611
vn 0.2750 -0.0000 0.9614
vn -0.1399 -0.0000 -0.9902
vn 0.1390 -0.0000 0.9903
vn -0.0000 1.0000 -0.0000
vn -0.0000 -1.0000 -0.0000
s 1
usemtl gold
f 1//1 2//2 3//2
f 1//1 4//1 2//2
f 5//3 6//4 7//4
f 5//3 8//3 6//4
f 3//2 9//5 10//5
f 3//2 2//2 9//5
f 7//4 11//6 12//6
f 7//4 6//4 11//6
f 10//5 13//7 14//7
f 10//5 9//5 13//7
f 12//6 15//8 16//8
f 12//6 11//6 15//8
f 14//7 17//9 18//9
f 14//7 13//7 17//9
f 16//8 19//10 20//10
f 16//8 15//8 19//10
f 18//9 21//11 22//11
f 18//9 17//9 21//11
f 20//10 23//12 24//12
f 20//10 19//10 23//12
f 22//11 25//13 26//13
f 22//11 21//11 25//13
f 24//12 27//14 28//14
f 24//12 23//12 27//14
f 26//13 29//15 30//15
f 26//13 25//13 29//15
f 28//14 31//16 32//16
f 28//14 27//14 31//16
f 30//15 33//17 34//17
f 30//15 29//15 33//17
f 32//16 35//18 36//18
f 32//16 31//16 35//18
f 34//17 37//19 38//19
f 34//17 33//17 37//19
f 36//18 39//20 40//20
f 36//18 35//18 39//20
f 38//19 41//21 42//21
f 38//19 37//19 41//21
f 40//20 43//22 44//22
f 40//20 39//20 43//22
f 42//21 45//23 46//23
f 42//21 41//21 45//23
f 44//22 47//24 48//24
f 44//22 43//22 47//24
f 46//23 49//25 50//25
f 46//23 45//23 49//25
f 48//24 51//26 52//26
f 48//24 47//24 51//26
f 50//25 53//27 54//27
f 50//25 49//25 53//27
f 52//26 55//28 56//28
f 52//26 51//26 55//28
f 54//27 57//29 58//29
f 54//27 53//27 57//29
f 56//28 59//30 60//30
f 56//28 55//28 59//30
f 58//29 61//31 62//31
f 58//29 57//29 61//31
f 60//30 63//32 64//32
f 60//30 59//30 63//32
f 62//31 65//33 66//33
f 62//31 61//31 65//33
f 64//32 67//34 68//34
f 64//32 63//32 67//34
f 66//33 69//35 70//35
f 66//33 65//33 69//35
f 68//34 71//36 72//36
f 68//34 67//34 71//36
f 70//35 73//37 74//37
f 70//35 69//35 73//37
f 72//36 75//38 76//38
f 72//36 71//36 75//38
f 74//37 77//39 78//39
f 74//37 73//37 77//39
f 76//38 79//40 80//40
f 76//38 75//38 79//40
f 78//39 81//41 82//41
f 78//39 77//39 81//41
f 80//40 83//42 84//43
f 80//40 79//40 83//42
f 82//41 85//44 86//44
f 82//41 81//41 85//44
f 84//43 87//45 88//45
f 84//43 83//42 87//45
f 86//44 89//46 90//46
f 86//44 85//44 89//46
f 88//45 91//47 92//47
f 88//45 87//45 91//47
f 90//46 93//48 94//48
f 90//46 89//46 93//48
f 92//47 95//49 96//49
f 92//47 91//47 95//49
f 94//48 97//50 98//50
f 94//48 93//48 97//50
f 96//49 99//51 100//51
f 96//49 95//49 99//51
f 98//50 101//52 102//52
f 98//50 97//50 101//52
f 100//51 103//53 104//53
f 100//51 99//51 103//53
f 102//52 105//54 106//54
f 102//52 101//52 105//54
f 104//53 107//55 108//55
f 104//53 103//53 107//55
f 106//54 109//56 110//56
f 106//54 105//54 109//56
f 108//55 111//57 112//57
f 108//55 107//55 111//57
f 110//56 113//58 114//58
f 110//56 109//56 113//58
f 112//57 115//59 116//59
f 112//57 111//57 115//59
f 114//58 117//60 118//60
f 114//58 113//58 117//60
f 116//59 119//61 120//61
f 116//59 115//59 119//61
f 118//60 121//62 122//62
f 118//60 117//60 121//62
f 120//61 123//63 124//63
f 120//61 119//61 123//63
f 122//62 125//64 126//64
f 122//62 121//62 125//64
f 124//63 127//65 128//65
f 124//63 123//63 127//65
f 126//64 129//66 130//66
f 126//64 125//64 129//66
f 128//65 131//67 132//67
f 128//65 127//65 131//67
f 130//66 133//68 134//68
f 130//66 129//66 133//68
f 132//67 135//69 136//69
f 132//67 131//67 135//69
f 134//68 137//70 138//70
f 134//68 133//68 137//70
f 136//69 139//71 140//71
f 136//69 135//69 139//71
f 138//70 141//72 142//72
f 138//70 137//70 141//72
f 140//71 143//73 144//73
f 140//71 139//71 143//73
f 142//72 145//74 146//74
f 142//72 141//72 145//74
f 144//73 147//75 148//75
f 144//73 143//73 147//75
f 146//74 149//76 150//76
f 146//74 145//74 149//76
f 148//75 151//77 152//77
f 148//75 147//75 151//77
f 150//76 153//78 154//78
f 150//76 149//76 153//78
f 152//77 155//79 156//79
f 152//77 151//77 155//79
f 154//78 157//80 158//80
f 154//78 153//78 157//80
f 156//79 159//81 160//81
f 156//79 155//79 159//81
f 158//80 161//82 162//82
f 158//80 157//80 161//82
f 160//81 163//83 164//83
f 160//81 159//81 163//83
f 162//82 165//84 166//84
f 162//82 161//82 165//84
f 164//83 167//85 168//85
f 164//83 163//83 167//85
f 166//84 169//86 170//86
f 166//84 165//84 169//86
f 168//85 171//87 172//87
f 168//85 167//85 171//87
f 170//86 173//88 174//88
f 170//86 169//86 173//88
f 172//87 175//89 176//89
f 172//87 171//87 175//89
f 174//88 177//90 178//90
f 174//88 173//88 177//90
f 176//89 179//91 180//91
f 176//89 175//89 179//91
f 4//1 1//1 178//90
f 178//90 177//90 4//1
f 180//91 8//3 5//3
f 180//91 179//91 8//3
f 181//92 182//92 183//92
f 181//92 184//92 182//92
f 183//92 185//92 186//92
f 183//92 182//92 185//92
f 186//92 187//92 188//92
f 186//92 185//92 187//92
f 188//92 189//92 190//92
f 188//92 187//92 189//92
f 190//92 191//92 192//92
f 190//92 189//92 191//92
f 192//92 193//92 194//92
f 192//92 191//92 193//92
f 194//92 195//92 196//92
f 194//92 193//92 195//92
f 196//92 197//92 198//92
f 196//92 195//92 197//92
f 198//92 199//92 200//92
f 198//92 197//92 199//92
f 200//92 201//92 202//92
f 200//92 199//92 201//92
f 202//92 203//92 204//92
f 202//92 201//92 203//92
f 204//92 205//92 206//92
f 204//92 203//92 205//92
f 206//92 207//92 208//92
f 206//92 205//92 207//92
f 208//92 209//92 210//92
f 208//92 207//92 209//92
f 210//92 211//92 212//92
f 210//92 209//92 211//92
f 212//92 213//92 214//92
f 212//92 211//92 213//92
f 214//92 215//92 216//92
f 214//92 213//92 215//92
f 216//92 217//92 218//92
f 216//92 215//92 217//92
f 218//92 219//92 220//92
f 218//92 217//92 219//92
f 220//92 221//92 222//92
f 220//92 219//92 221//92
f 222//92 223//92 224//92
f 222//92 221//92 223//92
f 224//92 225//92 226//92
f 224//92 223//92 225//92
f 226//92 227//92 228//92
f 226//92 225//92 227//92
f 228//92 229//92 230//92
f 228//92 227//92 229//92
f 230//92 231//92 232//92
f 230//92 229//92 231//92
f 232//92 233//92 234//92
f 232//92 231//92 233//92
f 234//92 235//92 236//92
f 234//92 233//92 235//92
f 236//92 237//92 238//92
f 236//92 235//92 237//92
f 238//92 239//92 240//92
f 238//92 237//92 239//92
f 240//92 241//92 242//92
f 240//92 239//92 241//92
f 242//92 243//92 244//92
f 242//92 241//92 243//92
f 244//92 245//92 246//92
f 244//92 243//92 245//92
f 246//92 247//92 248//92
f 246//92 245//92 247//92
f 248//92 249//92 250//92
f 248//92 247//92 249//92
f 250//92 251//92 252//92
f 250//92 249//92 251//92
f 252//92 253//92 254//92
f 252//92 251//92 253//92
f 254//92 255//92 256//92
f 254//92 253//92 255//92
f 256//92 257//92 258//92
f 256//92 255//92 257//92
f 258//92 259//92 260//92
f 258//92 257//92 259//92
f 260//92 261//92 262//92
f 260//92 259//92 261//92
f 262//92 263//92 264//92
f 262//92 261//92 263//92
f 264//92 265//92 266//92
f 264//92 263//92 265//92
f 266//92 267//92 268//92
f 266//92 265//92 267//92
f 268//92 269//92 270//92
f 268//92 267//92 269//92
f 270//92 184//92 181//92
f 270//92 269//92 184//92
f 271//93 272//93 273//93
f 271//93 274//93 272//93
f 273//93 275//93 276//93
f 273//93 272//93 275//93
f 276//93 277//93 278//93
f 276//93 275//93 277//93
f 278//93 279//93 280//93
f 278//93 277//93 279//93
f 280//93 281//93 282//93
f 280//93 279//93 281//93
f 282//93 283//93 284//93
f 282//93 281//93 283//93
f 284//93 285//93 286//93
f 284//93 283//93 285//93
f 286//93 287//93 288//93
f 286//93 285//93 287//93
f 288//93 289//93 290//93
f 288//93 287//93 289//93
f 290//93 291//93 292//93
f 290//93 289//93 291//93
f 292//93 293//93 294//93
f 292//93 291//93 293//93
f 294//93 295//93 296//93
f 294//93 293//93 295//93
f 296//93 297//93 298//93
f 296//93 295//93 297//93
f 298//93 299//93 300//93
f 298//93 297//93 299//93
f 300//93 301//93 302//93
f 300//93 299//93 301//93
f 302//93 303//93 304//93
f 302//93 301//93 303//93
f 304//93 305//93 306//93
f 304//93 303//93 305//93
f 306//93 307//93 308//93
f 306//93 305//93 307//93
f 308//93 309//93 310//93
f 308//93 307//93 309//93
f 310//93 311//93 312//93
f 310//93 309//93 311//93
f 312//93 313//93 314//93
f 312//93 311//93 313//93
f 314//93 315//93 316//93
f 314//93 313//93 315//93
f 316//93 317//93 318//93
f 316//93 315//93 317//93
f 318//93 319//93 320//93
f 318//93 317//93 319//93
f 320//93 321//93 322//93
f 320//93 319//93 321//93
f 322//93 323//93 324//93
f 322//93 321//93 323//93
f 324//93 325//93 326//93
f 324//93 323//93 325//93
f 326//93 327//93 328//93
f 326//93 325//93 327//93
f 328//93 329//93 330//93
f 328//93 327//93 329//93
f 330//93 331//93 332//93
f 330//93 329//93 331//93
f 332//93 333//93 334//93
f 332//93 331//93 333//93
f 334//93 335//93 336//93
f 334//93 333//93 335//93
f 336//93 337//93 338//93
f 336//93 335//93 337//93
f 338//93 339//93 340//93
f 338//93 337//93 339//93
f 340//93 341//93 342//93
f 340//93 339//93 341//93
f 342//93 343//93 344//93
f 342//93 341//93 343//93
f 344//93 345//93 346//93
f 344//93 343//93 345//93
f 346//93 347//93 348//93
f 346//93 345//93 347//93
f 348//93 349//93 350//93
f 348//93 347//93 349//93
f 350//93 351//93 352//93
f 350//93 349//93 351//93
f 352//93 353//93 354//93
f 352//93 351//93 353//93
f 354//93 355//93 356//93
f 354//93 353//93 355//93
f 356//93 357//93 358//93
f 356//93 355//93 357//93
f 358//93 359//93 360//93
f 358//93 357//93 359//93
f 360//93 274//93 271//93
f 360//93 359//93 274//93
